<svg width="1032" height="282" viewBox="0 0 1032 282" fill="none" xmlns="http://www.w3.org/2000/svg">
<g id="logo-narcos">
<path id="Fill 1" fill-rule="evenodd" clip-rule="evenodd" d="M0 0V273H33.6203L30.5307 115.619L28.9859 92.0308L27.0479 68.4478H29.3679L74.2005 273H114V0H80.3797L81.9245 137.659L83.4749 163.184C84.2445 176.328 85.7893 189.09 87.3341 201.853H85.0197C83.0817 192.957 81.5425 185.223 79.2225 174.784L38.6423 0H0" fill="white"/>
<path id="Fill 2" fill-rule="evenodd" clip-rule="evenodd" d="M233.861 3L195 276H230.327L236.609 225.73H278.211L285.28 276H321L278.211 3H233.861ZM257.41 54.4313C257.803 76.8581 258.197 87.297 259.764 97.7415L273.503 192.477H240.531L252.308 98.5104C253.089 93.8747 253.089 90.0078 254.269 54.4313H257.41V54.4313Z" fill="white"/>
<path id="Fill 3" fill-rule="evenodd" clip-rule="evenodd" d="M384 276H420.059V150.329C441.386 150.329 445.654 150.329 449.918 158.45C454.186 167.346 454.569 188.998 454.569 199.437V218.771C454.569 246.614 457.289 260.145 460.387 276H498C491.8 259.758 491.022 254.735 491.022 221.864V192.09C491.022 155.739 487.531 141.046 461.552 137.954V136.405C491.022 136.792 492.183 117.076 492.183 69.1243C492.183 14.9879 487.142 3 442.94 3H384V276ZM439.065 35.8713C454.569 35.8713 456.512 36.6402 456.512 66.8064C456.512 112.047 455.735 120.168 437.511 120.168H420.448V35.8713H439.065V35.8713Z" fill="white"/>
<path id="Fill 4" fill-rule="evenodd" clip-rule="evenodd" d="M558 212.829C558 227.125 558 243.744 566.685 257.659C576.947 274.271 596.29 282 616.819 282C669.71 282 678 242.588 678 211.668V165.683H640.897V216.306C640.897 232.925 640.897 250.698 617.604 250.698C595.109 250.698 595.109 234.473 595.109 219.015V68.3066C595.109 54.3916 595.109 34.3016 618.396 34.3016C641.293 34.3016 641.293 53.6233 641.293 62.5073V104.634H678V69.8546C678 50.5329 678 3 620.373 3C558 3 558 57.1006 558 81.0606V212.829" fill="white"/>
<path id="Fill 5" fill-rule="evenodd" clip-rule="evenodd" d="M741 214.031C741 227.103 741 240.175 747.548 252.471C760.644 279 788.372 279 795.691 279C854.235 279 855 235.176 855 215.186V86.4137C855 52.9723 855 34.1316 839.986 18.3761C828.813 6.45907 814.176 3 799.156 3C782.212 3 765.651 9.14821 754.484 21.8352C742.159 36.0564 741 53.7423 741 78.3407V214.031ZM819.571 212.497C819.571 231.717 818.8 249.397 797.62 249.397C777.976 249.397 776.823 234.406 776.823 220.955V75.2666C776.823 58.3506 776.823 52.5874 778.747 47.2035C783.365 34.1316 796.079 34.1316 798.773 34.1316C819.571 34.1316 819.571 52.2024 819.571 75.6515V212.497V212.497Z" fill="white"/>
<path id="Fill 6" fill-rule="evenodd" clip-rule="evenodd" d="M957.901 177.739H924V223.135C924 236.989 924 282 977.21 282C987.463 282 1005.99 280.844 1018.99 263.92C1027.27 252.758 1032 235.448 1032 217.367C1032 182.357 1016.63 160.423 998.889 134.654C971.692 96.1814 963.024 83.4838 963.024 55.7824C963.024 42.3198 964.599 28.4663 981.549 28.4663C994.95 28.4663 996.13 38.4726 996.13 46.9376V95.0256H1029.64V46.5468C1029.64 18.4657 1017.41 0 982.729 0C963.809 0 946.858 5.00311 935.827 22.313C929.518 32.6989 926.364 45.0112 926.364 59.6297C926.364 94.6403 942.525 117.724 964.599 148.887C989.827 185.048 994.555 196.59 994.555 221.979C994.555 236.218 994.16 253.528 976.815 253.528C957.901 253.528 957.901 236.603 957.901 227.368V177.739" fill="white"/>
</g>
</svg>
