<svg width="723" height="81" viewBox="0 0 723 81" fill="none" xmlns="http://www.w3.org/2000/svg">
<g id="logoNetflixOriginal" clip-path="url(#clip0_0_46)">
<path id="NETFLIX" d="M5.5936 60V2.28053H18.4832L42.2357 40.9493V2.28053H54.3957V60H41.7493L17.8347 21.2501V60H5.5936ZM108.971 2.28053V12.6571H78.2464V25.2224H106.458V35.1936H78.2464V49.3803H109.538V60H65.6811V2.28053H108.971ZM161.132 2.28053V13.0624H143.784V60H131.056V13.0624H113.708V2.28053H161.132ZM208.502 2.28053V12.9003H180.453V26.2763H204.854V36.3285H180.453V60H167.806V2.28053H208.502ZM256.718 49.1371V60H215.86V2.28053H228.507V49.1371H256.718ZM276.642 2.28053V60H263.914V2.28053H276.642ZM335.004 2.28053L316.439 29.8432L336.706 60H321.547L308.9 39.9765L296.092 60H281.662L302.009 29.8432L283.202 2.28053H297.956L309.468 20.8448L321.06 2.28053H335.004Z" fill="white"/>
<path id="ORIGINAL" d="M389.995 3.9024C398.02 3.9024 404.587 6.73973 409.613 12.3333C414.639 18.008 417.233 25.304 417.233 34.3024C417.233 43.3008 414.72 50.5968 409.694 56.1093C404.668 61.6219 398.02 64.3781 389.914 64.3781C381.807 64.3781 375.241 61.6219 370.295 56.0283C365.269 50.5157 362.837 43.2197 362.837 34.1403C362.837 25.1419 365.269 17.8459 370.295 12.2523C375.322 6.73973 381.888 3.9024 389.995 3.9024ZM389.914 8.68533C383.428 8.68533 378.24 11.0363 374.268 15.6571C370.295 20.3589 368.35 26.4389 368.35 33.9781C368.35 41.7605 370.295 47.9216 374.268 52.6235C378.159 57.3253 383.428 59.5952 389.995 59.5952C396.48 59.5952 401.749 57.3253 405.722 52.6235C409.694 48.0027 411.721 41.8416 411.721 34.2213C411.721 26.6011 409.694 20.44 405.722 15.7381C401.668 11.0363 396.399 8.68533 389.914 8.68533ZM425.924 5.28053H452.028C457.459 5.28053 461.837 6.5776 465.08 9.17173C468.322 11.7659 470.025 15.6571 470.025 20.8453C470.025 24.5744 468.971 27.736 467.025 30.168C465.08 32.6 462.323 34.3024 458.756 35.1131C462.242 35.7616 464.755 37.1397 466.214 39.1664C467.674 41.1931 468.565 44.1925 468.89 48.1648C468.89 48.3269 468.89 49.0565 468.971 50.3536C468.971 51.7317 469.052 52.8667 469.133 53.8395C469.214 54.8123 469.376 56.0283 469.538 57.3253C469.7 58.7035 470.025 59.8384 470.349 60.8112C470.673 61.784 471.16 62.5136 471.646 63H465.404C464.917 62.4325 464.512 61.3787 464.35 59.8384C464.107 58.3792 463.945 56.4336 463.864 54.0016C463.701 51.6507 463.701 50.3536 463.701 50.1915C463.296 45.0032 461.999 41.5173 459.891 39.8149C457.702 38.1125 453.892 37.2208 448.38 37.2208H431.437V63H425.924V5.28053ZM431.437 9.9824V32.8432H447.731C450.082 32.8432 452.109 32.7621 453.892 32.4379C455.595 32.1947 457.297 31.7083 459.081 30.8976C460.864 30.168 462.161 28.952 463.134 27.3307C464.107 25.7093 464.593 23.6016 464.593 21.1696C464.593 13.7115 459.81 9.9824 450.244 9.9824H431.437ZM485.913 5.28053V63H480.4V5.28053H485.913ZM547.498 33.6539V63H543.85L542.877 54.8123L542.715 52.2181C540.931 56.1093 538.337 59.1088 534.77 61.2165C531.203 63.3243 527.15 64.3781 522.448 64.3781C514.341 64.3781 507.856 61.7029 502.83 56.1904C497.804 50.6779 495.291 43.544 495.291 34.7077C495.291 25.6283 497.804 18.2512 502.83 12.5765C507.856 6.90186 514.504 4.06453 522.691 4.06453C528.852 4.06453 534.203 5.76693 538.661 9.17173C543.039 12.5765 545.714 17.1973 546.687 23.1152H541.418C540.607 18.7376 538.418 15.2517 534.932 12.6576C531.447 10.0635 527.393 8.7664 522.772 8.7664C516.044 8.7664 510.693 11.1173 506.721 15.8192C502.668 20.5211 500.722 26.8443 500.722 34.6267C500.722 42.2469 502.668 48.408 506.721 52.9477C510.775 57.4875 516.044 59.7573 522.691 59.7573C527.799 59.7573 532.176 58.2981 535.743 55.2987C539.31 52.2992 541.499 48.3269 542.309 43.3008C542.472 41.8416 542.634 40.1392 542.634 38.1936H522.853V33.6539H547.498ZM563.971 5.28053V63H558.459V5.28053H563.971ZM621.422 5.28053V63H615.342L588.509 24.2501C584.942 19.0619 582.348 15.0085 580.888 11.928C581.132 15.8192 581.294 20.3589 581.294 25.7093V63H575.943V5.28053H582.023L609.018 44.4357C612.018 48.8133 614.531 52.8667 616.558 56.5147C616.233 48.0837 616.152 42.9765 616.152 41.2741V5.28053H621.422ZM655.964 5.1184L678.987 63H672.907L665.935 44.8411H639.508L632.455 63H626.537L649.884 5.1184H655.964ZM664.233 40.3824L652.884 10.3067L641.21 40.3824H664.233ZM722.186 58.2981V63H684.247V5.28053H689.76V58.2981H722.186Z" fill="white"/>
</g>
<defs>
<clipPath id="clip0_0_46">
<rect width="241" height="27" fill="white" transform="scale(3)"/>
</clipPath>
</defs>
</svg>
